<?xml version="1.0" standalone="no"?><!DOCTYPE svg PUBLIC "-//W3C//DTD SVG 1.1//EN" "http://www.w3.org/Graphics/SVG/1.1/DTD/svg11.dtd"><svg xmlns:xlink="http://www.w3.org/1999/xlink" version="1.1" style="font-family:dosis, sans-serif;font-size:12px;" xmlns="http://www.w3.org/2000/svg" width="600" height="400"><desc>Created with Highcharts 4.2.7</desc><defs><radialGradient cx="0.5" cy="0.3" r="0.7" id="highcharts-245"><stop offset="0" stop-color="#50B432" stop-opacity="1"></stop><stop offset="1" stop-color="rgb(4,104,0)" stop-opacity="1"></stop></radialGradient><radialGradient cx="0.5" cy="0.3" r="0.7" id="highcharts-246"><stop offset="0" stop-color="#1beddb" stop-opacity="1"></stop><stop offset="1" stop-color="rgb(0,161,143)" stop-opacity="1"></stop></radialGradient><radialGradient cx="0.5" cy="0.3" r="0.7" id="highcharts-247"><stop offset="0" stop-color="#fdff07" stop-opacity="1"></stop><stop offset="1" stop-color="rgb(177,179,0)" stop-opacity="1"></stop></radialGradient><radialGradient cx="0.5" cy="0.3" r="0.7" id="highcharts-248"><stop offset="0" stop-color="#f58300" stop-opacity="1"></stop><stop offset="1" stop-color="rgb(169,55,0)" stop-opacity="1"></stop></radialGradient><radialGradient cx="0.5" cy="0.3" r="0.7" id="highcharts-249"><stop offset="0" stop-color="#ff5000" stop-opacity="1"></stop><stop offset="1" stop-color="rgb(179,4,0)" stop-opacity="1"></stop></radialGradient><clipPath id="highcharts-250"><rect x="1" y="1" width="578" height="298"></rect></clipPath><radialGradient cx="289.5" cy="115.7" r="174.29999999999998" id="highcharts-251" gradientUnits="userSpaceOnUse"><stop offset="0" stop-color="#50B432" stop-opacity="1"></stop><stop offset="1" stop-color="rgb(4,104,0)" stop-opacity="1"></stop></radialGradient><radialGradient cx="289.5" cy="115.7" r="174.29999999999998" id="highcharts-252" gradientUnits="userSpaceOnUse"><stop offset="0" stop-color="#1beddb" stop-opacity="1"></stop><stop offset="1" stop-color="rgb(0,161,143)" stop-opacity="1"></stop></radialGradient><radialGradient cx="289.5" cy="115.7" r="174.29999999999998" id="highcharts-253" gradientUnits="userSpaceOnUse"><stop offset="0" stop-color="#fdff07" stop-opacity="1"></stop><stop offset="1" stop-color="rgb(177,179,0)" stop-opacity="1"></stop></radialGradient><radialGradient cx="289.5" cy="115.7" r="174.29999999999998" id="highcharts-254" gradientUnits="userSpaceOnUse"><stop offset="0" stop-color="#f58300" stop-opacity="1"></stop><stop offset="1" stop-color="rgb(169,55,0)" stop-opacity="1"></stop></radialGradient><radialGradient cx="289.5" cy="115.7" r="174.29999999999998" id="highcharts-255" gradientUnits="userSpaceOnUse"><stop offset="0" stop-color="#ff5000" stop-opacity="1"></stop><stop offset="1" stop-color="rgb(179,4,0)" stop-opacity="1"></stop></radialGradient></defs><rect x="1" y="1" width="598" height="398" fill="none" class=" highcharts-background"></rect><rect x="10" y="44" width="580" height="300" fill="#ffffff"></rect><rect x="10" y="44" width="580" height="300" stroke="#ffffff" stroke-width="2" fill="none"></rect><g class="highcharts-series-group"><g class="highcharts-series highcharts-series-0" transform="translate(10,44) scale(1 1)"><path fill="url(#highcharts-251)" d="M 289.97464268613993 41.5000025823027 A 124.5 124.5 0 1 1 290.0991426754863 290.4999605250134 L 290 166 A 0 0 0 1 0 290 166 Z" stroke="#FFFFFF" stroke-width="1" stroke-linejoin="round" transform="translate(0,0)"></path><path fill="url(#highcharts-252)" d="M 289.97464268613993 290.4999974176973 A 124.5 124.5 0 0 1 166.49626826331053 181.71872282063157 L 290 166 A 0 0 0 0 0 290 166 Z" stroke="#FFFFFF" stroke-width="1" stroke-linejoin="round" transform="translate(0,0)"></path><path fill="url(#highcharts-253)" d="M 166.4806112949704 181.5952112501181 A 124.5 124.5 0 0 1 223.19474218891702 60.94140906715559 L 290 166 A 0 0 0 0 0 290 166 Z" stroke="#FFFFFF" stroke-width="1" stroke-linejoin="round" transform="translate(0,0)"></path><path fill="url(#highcharts-254)" d="M 223.29983416496628 60.87465634976978 A 124.5 124.5 0 0 1 266.56177492931647 43.72612868835802 L 290 166 A 0 0 0 0 0 290 166 Z" stroke="#FFFFFF" stroke-width="1" stroke-linejoin="round" transform="translate(0,0)"></path><path fill="url(#highcharts-255)" d="M 266.6840604993608 43.70275160412426 A 124.5 124.5 0 0 1 289.8270719977101 41.50012009682088 L 290 166 A 0 0 0 0 0 290 166 Z" stroke="#FFFFFF" stroke-width="1" stroke-linejoin="round" transform="translate(-1,-10)"></path></g><g class="highcharts-markers highcharts-series-0" transform="translate(10,44) scale(1 1)"></g></g><text x="300" text-anchor="middle" class="highcharts-title" style="color:#000000;font-size:16px;font-family:'verdana', sans-serif;font-weight:bold;text-transform:uppercase;fill:#000000;width:536px;" y="22"><tspan>Registro Presenze Alunni</tspan></text><g class="highcharts-data-labels highcharts-series-0" transform="translate(10,44) scale(1 1)" opacity="1"><path fill="none" d="M 449 165.5 C 444 165.5 436 165.5 425 165.5 L 414 165.5" stroke="url(#highcharts-245)" stroke-width="1"></path><path fill="none" d="M 182.3273168074958 281.392160257906 C 187.3273168074958 281.392160257906 192.617811730085 275.3912717008623 199.89224224864518 267.1400499349273 L 207.16667276720534 258.88882816899223" stroke="url(#highcharts-246)" stroke-width="1"></path><path fill="none" d="M 144.70422039399995 99.71709945319634 C 149.70422039399995 99.71709945319634 156.94283681372812 103.12333378571692 166.89593439085434 107.80690599293271 L 176.84903196798055 112.4904782001485" stroke="url(#highcharts-247)" stroke-width="1"></path><path fill="none" d="M 205.03931789872428 33 C 210.03931789872428 33 235.5697530316947 29.287744817371163 239.61912311122614 39.515286162141926 L 243.6684931907576 49.74282750691269" stroke="url(#highcharts-248)" stroke-width="1"></path><path fill="none" d="M 269.9602655922895 11 C 274.9602655922895 11 275.7131320988378 19.650172185648785 276.7483235453414 30.601353796282666 L 277.78351499184504 41.55253540691655" stroke="url(#highcharts-249)" stroke-width="1"></path><g style="cursor:pointer;" transform="translate(454,156)"><text x="5" style="font-size:10px;font-weight:bold;font-family:'verdana', sans-serif;color:#000;text-shadow:none;fill:#000;text-rendering:geometricprecision;" y="15"><tspan>90% &lt;: 50 Alunni</tspan></text></g><g style="cursor:pointer;" transform="translate(53,271)"><text x="5" style="font-size:10px;font-weight:bold;font-family:'verdana', sans-serif;color:#000;text-shadow:none;fill:#000;text-rendering:geometricprecision;" y="15"><tspan>80 - 90%: 23 Alunni</tspan></text></g><g style="cursor:pointer;" transform="translate(15,90)"><text x="5" style="font-size:10px;font-weight:bold;font-family:'verdana', sans-serif;color:#000;text-shadow:none;fill:#000;text-rendering:geometricprecision;" y="15"><tspan>60 - 70%: 18 Alunni</tspan></text></g><g style="cursor:pointer;" transform="translate(83,23)"><text x="5" style="font-size:10px;font-weight:bold;font-family:'verdana', sans-serif;color:#000;text-shadow:none;fill:#000;text-rendering:geometricprecision;" y="15"><tspan>40 - 50%: 6 Alunni</tspan></text></g><g style="cursor:pointer;" transform="translate(148,1)"><text x="5" style="font-size:10px;font-weight:bold;font-family:'verdana', sans-serif;color:#000;text-shadow:none;fill:#000;text-rendering:geometricprecision;" y="15"><tspan>20 - 30%: 3 Alunni</tspan></text></g></g><g class="highcharts-legend" transform="translate(73,356)"><g><g><g class="highcharts-legend-item" transform="translate(8,3)"><text x="21" style="color:#333;font-size:9pt;font-weight:normal;cursor:pointer;font-family:'lucida grande','lucida sans unicode',arial,helvetica,sans-serif;text-transform:none;fill:#333;" text-anchor="start" y="15"><tspan>90% &lt;</tspan></text><rect x="0" y="4" width="16" height="12" fill="url(#highcharts-245)"></rect></g><g class="highcharts-legend-item" transform="translate(85.546875,3)"><text x="21" y="15" style="color:#333;font-size:9pt;font-weight:normal;cursor:pointer;font-family:'lucida grande','lucida sans unicode',arial,helvetica,sans-serif;text-transform:none;fill:#333;" text-anchor="start"><tspan>80 - 90%</tspan></text><rect x="0" y="4" width="16" height="12" fill="url(#highcharts-246)"></rect></g><g class="highcharts-legend-item" transform="translate(180.435546875,3)"><text x="21" y="15" style="color:#333;font-size:9pt;font-weight:normal;cursor:pointer;font-family:'lucida grande','lucida sans unicode',arial,helvetica,sans-serif;text-transform:none;fill:#333;" text-anchor="start"><tspan>60 - 70%</tspan></text><rect x="0" y="4" width="16" height="12" fill="url(#highcharts-247)"></rect></g><g class="highcharts-legend-item" transform="translate(275.32421875,3)"><text x="21" y="15" style="color:#333;font-size:9pt;font-weight:normal;cursor:pointer;font-family:'lucida grande','lucida sans unicode',arial,helvetica,sans-serif;text-transform:none;fill:#333;" text-anchor="start"><tspan>40 - 50%</tspan></text><rect x="0" y="4" width="16" height="12" fill="url(#highcharts-248)"></rect></g><g class="highcharts-legend-item" transform="translate(370.212890625,3)"><text x="21" y="15" style="color:#333;font-size:9pt;font-weight:normal;cursor:pointer;font-family:'lucida grande','lucida sans unicode',arial,helvetica,sans-serif;text-transform:none;fill:#333;" text-anchor="start"><tspan>20 - 30%</tspan></text><rect x="0" y="4" width="16" height="12" fill="url(#highcharts-249)"></rect></g></g></g></g><g class="highcharts-tooltip" display="none" style="cursor:default;padding:0;pointer-events:none;white-space:nowrap;" transform="translate(0,0)"><path fill="rgb(219,219,216)" fill-opacity="0.8" d="M 3 0 L 13 0 C 16 0 16 0 16 3 L 16 13 C 16 16 16 16 13 16 L 3 16 C 0 16 0 16 0 13 L 0 3 C 0 0 0 0 3 0"></path><text x="8" style="font-size:12px;color:#000000;fill:#000000;" y="20"></text></g><text x="590" text-anchor="end" style="cursor:pointer;color:#666;font-size:9px;fill:#666;" y="395">meta-chart.com</text></svg>